<svg width="14" height="14" viewBox="0 0 16 16" fill="none" xmlns="http://www.w3.org/2000/svg">
  <path fill-rule="evenodd" clip-rule="evenodd" d="M14.24 7.2112C14.4512 7.2112 14.6304 7.2856 14.7784 7.4352C14.9264 7.584 15 7.7656 15 7.9792C15 8.192 14.9264 8.3728 14.7784 8.5224C14.6304 8.672 14.4512 8.7464 14.24 8.7464H8.696V14.232C8.696 14.432 8.6224 14.6088 8.4752 14.7656C8.3272 14.9216 8.1472 15 7.9368 15C7.7256 15 7.5464 14.9216 7.3984 14.7656C7.2512 14.6088 7.1768 14.4312 7.1768 14.232V8.7464H1.76C1.5624 8.7464 1.3872 8.672 1.232 8.5224C1.0776 8.3728 1 8.192 1 7.9784C1 7.7656 1.0776 7.584 1.232 7.4344C1.3872 7.2856 1.5624 7.2104 1.76 7.2104H7.176V1.768C7.176 1.5544 7.2504 1.3728 7.3976 1.224C7.5456 1.0744 7.7256 1 7.936 1C8.1472 1 8.3264 1.0744 8.4744 1.224C8.6216 1.3728 8.6952 1.5544 8.6952 1.768V7.2112H14.24Z" fill="#0047AB" />
</svg>
  