<svg width="20" height="20" viewBox="0 0 20 20" fill="none" xmlns="http://www.w3.org/2000/svg">
  <g clip-path="url(#clip0_5224_52779)">
    <path d="M13.4967 0C13.9272 0 14.2984 0.153212 14.6102 0.459641C14.9221 0.76607 15.078 1.13602 15.078 1.56951V2.86996H19.1759C19.4135 2.86996 19.6102 2.94843 19.7661 3.10538C19.9221 3.26233 20 3.45291 20 3.67713C20 3.8864 19.9183 4.06951 19.755 4.22646C19.5917 4.38341 19.3987 4.46188 19.1759 4.46188H18.7305L17.4805 18.4305C17.4805 18.864 17.3246 19.2339 17.0128 19.5404C16.701 19.8468 16.3298 20 15.8992 20H4.3235C3.89291 20 3.52172 19.8468 3.20991 19.5404C2.89811 19.2339 2.7422 18.864 2.7422 18.4305L1.4922 4.46188H0.801782C0.579063 4.46188 0.389756 4.38341 0.233853 4.22646C0.0779502 4.06951 0 3.88266 0 3.66592C0 3.44918 0.0779502 3.26233 0.233853 3.10538C0.389756 2.94843 0.579063 2.86996 0.801782 2.86996H4.92205V1.56951C4.92205 1.13602 5.07424 0.76607 5.37862 0.459641C5.683 0.153212 6.0579 0 6.50334 0H13.4967ZM13.8275 4.1125H6.17125L6.17205 4.11996H2.7166L2.73723 4.35047L3.9922 18.4305C3.9922 18.5279 4.01284 18.5768 4.08607 18.6488C4.1651 18.7265 4.22207 18.75 4.3235 18.75H15.8992C16.0007 18.75 16.0576 18.7265 16.1366 18.6488C16.2099 18.5768 16.2305 18.5279 16.2355 18.3191L17.5061 4.11996H13.828L13.8275 4.1125ZM9.98886 7.15247C10.2042 7.15247 10.386 7.23468 10.5345 7.3991C10.6978 7.54858 10.7795 7.73542 10.7795 7.95964V15.4484C10.7795 15.6726 10.7016 15.8632 10.5457 16.0202C10.3898 16.1771 10.2042 16.2556 9.98886 16.2556C9.77357 16.2556 9.58797 16.1771 9.43207 16.0202C9.27617 15.8632 9.19822 15.6726 9.19822 15.4484V7.95964C9.19822 7.73542 9.27617 7.54484 9.43207 7.38789C9.58797 7.23094 9.77357 7.15247 9.98886 7.15247ZM6.2124 7.36696C6.38813 7.50163 6.48577 7.68065 6.50531 7.90401L7.158 15.3643C7.17754 15.5877 7.1165 15.7843 6.97487 15.9543C6.83324 16.1242 6.65149 16.2189 6.42962 16.2383C6.20775 16.2577 6.01232 16.196 5.84334 16.0533C5.67435 15.9105 5.58008 15.7274 5.56054 15.5041L4.90785 8.04377C4.88831 7.82041 4.94935 7.62376 5.09098 7.45381C5.23261 7.28387 5.41436 7.1892 5.63623 7.16979C5.8581 7.15038 6.05016 7.2161 6.2124 7.36696ZM14.2921 7.16979C14.514 7.1892 14.6917 7.28727 14.8253 7.46401C14.975 7.62716 15.04 7.82041 15.0205 8.04377L14.3678 15.5041C14.3483 15.7274 14.254 15.9105 14.085 16.0533C13.916 16.196 13.7206 16.2577 13.4987 16.2383C13.2769 16.2189 13.0951 16.1242 12.9535 15.9543C12.8119 15.7843 12.7508 15.5877 12.7703 15.3643L13.423 7.90401C13.4426 7.68065 13.5368 7.49758 13.7058 7.35482C13.8748 7.21205 14.0703 7.15038 14.2921 7.16979ZM13.4967 1.25H6.50334C6.38804 1.25 6.33312 1.27244 6.26546 1.34056C6.19393 1.41257 6.17205 1.46575 6.17205 1.56951L6.17125 2.8625H13.8275L13.828 1.56951C13.828 1.47211 13.8073 1.42315 13.7341 1.35118C13.6551 1.27351 13.5981 1.25 13.4967 1.25Z" fill="white" />
  </g>
  <defs>
    <clipPath id="clip0_5224_52779">
      <rect width="20" height="20" fill="white" />
    </clipPath>
  </defs>
</svg>
  