<svg width="25" height="25" viewBox="0 0 30 30" fill="none" xmlns="http://www.w3.org/2000/svg">
  <rect width="30" height="30" rx="4" fill="#0047AB" />
  <g clip-path="url(#clip0_713_90268)">
    <path d="M17.7973 7C18.1418 7 18.4388 7.12257 18.6882 7.36771C18.9376 7.61286 19.0624 7.90882 19.0624 8.25561V9.29596H22.3408C22.5308 9.29596 22.6882 9.35874 22.8129 9.4843C22.9376 9.60987 23 9.76233 23 9.9417C23 10.1091 22.9347 10.2556 22.804 10.3812C22.6733 10.5067 22.5189 10.5695 22.3408 10.5695H21.9844L20.9844 21.7444C20.9844 22.0912 20.8597 22.3871 20.6102 22.6323C20.3608 22.8774 20.0638 23 19.7194 23H10.4588C10.1143 23 9.81737 22.8774 9.56793 22.6323C9.31848 22.3871 9.19376 22.0912 9.19376 21.7444L8.19376 10.5695H7.64143C7.46325 10.5695 7.3118 10.5067 7.18708 10.3812C7.06236 10.2556 7 10.1061 7 9.93274C7 9.75934 7.06236 9.60987 7.18708 9.4843C7.3118 9.35874 7.46325 9.29596 7.64143 9.29596H10.9376V8.25561C10.9376 7.90882 11.0594 7.61286 11.3029 7.36771C11.5464 7.12257 11.8463 7 12.2027 7H17.7973ZM18.062 10.29H11.937L11.9376 10.296H9.17328L9.18978 10.4804L10.1938 21.7444C10.1938 21.8223 10.2103 21.8615 10.2689 21.9191C10.3321 21.9812 10.3777 22 10.4588 22H19.7194C19.8005 22 19.8461 21.9812 19.9093 21.9191C19.9679 21.8615 19.9844 21.8223 19.9884 21.6553L21.0049 10.296H18.0624L18.062 10.29ZM14.9911 12.722C15.1633 12.722 15.3088 12.7877 15.4276 12.9193C15.5583 13.0389 15.6236 13.1883 15.6236 13.3677V19.3587C15.6236 19.5381 15.5612 19.6906 15.4365 19.8161C15.3118 19.9417 15.1633 20.0045 14.9911 20.0045C14.8189 20.0045 14.6704 19.9417 14.5457 19.8161C14.4209 19.6906 14.3586 19.5381 14.3586 19.3587V13.3677C14.3586 13.1883 14.4209 13.0359 14.5457 12.9103C14.6704 12.7848 14.8189 12.722 14.9911 12.722ZM11.9699 12.8936C12.1105 13.0013 12.1886 13.1445 12.2042 13.3232L12.7264 19.2914C12.742 19.4701 12.6932 19.6275 12.5799 19.7634C12.4666 19.8994 12.3212 19.9751 12.1437 19.9906C11.9662 20.0062 11.8099 19.9568 11.6747 19.8426C11.5395 19.7284 11.4641 19.5819 11.4484 19.4032L10.9263 13.435C10.9106 13.2563 10.9595 13.099 11.0728 12.9631C11.1861 12.8271 11.3315 12.7514 11.509 12.7358C11.6865 12.7203 11.8401 12.7729 11.9699 12.8936ZM18.4337 12.7358C18.6112 12.7514 18.7534 12.8298 18.8602 12.9712C18.98 13.1017 19.032 13.2563 19.0164 13.435L18.4942 19.4032C18.4786 19.5819 18.4032 19.7284 18.268 19.8426C18.1328 19.9568 17.9765 20.0062 17.799 19.9906C17.6215 19.9751 17.4761 19.8994 17.3628 19.7634C17.2495 19.6275 17.2006 19.4701 17.2163 19.2914L17.7384 13.3232C17.7541 13.1445 17.8295 12.9981 17.9647 12.8839C18.0999 12.7696 18.2562 12.7203 18.4337 12.7358ZM17.7973 8H12.2027C12.1104 8 12.0665 8.01795 12.0124 8.07245C11.9551 8.13006 11.9376 8.1726 11.9376 8.25561L11.937 9.29H18.062L18.0624 8.25561C18.0624 8.17769 18.0459 8.13852 17.9873 8.08094C17.924 8.01881 17.8785 8 17.7973 8Z" fill="white" />
  </g>
  <defs>
    <clipPath id="clip0_713_90268">
      <rect width="16" height="16" fill="white" transform="translate(7 7)" />
    </clipPath>
  </defs>
</svg>
  