<svg width="20" height="20" viewBox="0 0 20 20" fill="none" xmlns="http://www.w3.org/2000/svg">
  <g clip-path="url(#clip0_5224_52788)">
    <path fill-rule="evenodd" clip-rule="evenodd" d="M9.95705 1.64062C8.92964 1.64062 8.00009 2.0562 7.32508 2.72914C6.64985 3.40231 6.23442 4.32782 6.23442 5.34687C6.23442 6.368 6.65133 7.29905 7.32907 7.97679C8.00453 8.65225 8.93271 9.06949 9.95705 9.06949C10.9848 9.06949 11.9143 8.6536 12.5891 7.97889C13.2638 7.30416 13.6797 6.37461 13.6797 5.34687C13.6797 4.32121 13.2653 3.39718 12.593 2.72703C11.9188 2.05483 10.9879 1.64062 9.95705 1.64062ZM6.1778 1.57833C7.14439 0.614708 8.48148 0.015625 9.95705 0.015625C11.4328 0.015625 12.7721 0.610992 13.7403 1.57622C14.7062 2.53909 15.3047 3.87244 15.3047 5.34687C15.3047 6.82317 14.7049 8.16113 13.7381 9.12793C12.7713 10.0947 11.4334 10.6945 9.95705 10.6945C8.48097 10.6945 7.14523 10.091 6.18002 9.12584C5.21237 8.15818 4.60942 6.81951 4.60942 5.34687C4.60942 3.87608 5.21113 2.54204 6.1778 1.57833ZM13.2706 12.8795C15.123 12.8795 16.7994 13.634 18.0113 14.8459C18.5457 15.3803 19.0373 16.1466 19.3955 16.9414C19.752 17.7327 20.0141 18.6362 20.0141 19.4576V20.2701H0.00747681L0.0074961 19.4576C0.00754379 17.4481 0.873646 15.9834 1.87141 14.9448C3.03059 13.7382 4.63841 12.9609 6.42291 12.8855L6.43974 12.8848L13.2706 12.8795ZM6.47532 14.5098C5.13315 14.5708 3.92153 15.1564 3.04326 16.0706C2.40898 16.7308 1.87835 17.5634 1.69822 18.6451H18.2778C18.1967 18.3157 18.0733 17.9627 17.9139 17.6089C17.6133 16.9417 17.2225 16.3552 16.8623 15.995C15.9414 15.0741 14.6731 14.5047 13.2712 14.5045L6.47532 14.5098Z" fill="white" />
  </g>
  <defs>
    <clipPath id="clip0_5224_52788">
      <rect width="20" height="20" fill="white" />
    </clipPath>
  </defs>
</svg>
  