<svg width="20" height="20" viewBox="0 0 20 20" fill="none" xmlns="http://www.w3.org/2000/svg">
  <g clip-path="url(#clip0_5224_52783)">
    <path d="M15.685 0.0507812C16.017 0.0507812 16.287 0.339781 16.287 0.694781V4.58678H18.519C19.294 4.58678 19.924 5.25978 19.924 6.08778V14.3428C19.924 15.1698 19.294 15.8438 18.519 15.8438H16.287V19.0348C16.287 19.3908 16.017 19.6788 15.685 19.6788H4.24C3.907 19.6788 3.637 19.3908 3.637 19.0348V15.8438H1.406C0.63 15.8438 0 15.1698 0 14.3428V6.08778C0 5.25978 0.63 4.58678 1.406 4.58678H3.637V0.694781C3.637 0.339781 3.907 0.0517812 4.24 0.0517812L15.685 0.0507812ZM15.082 12.0088H4.842V18.3918H15.082V12.0088ZM12.702 16.0798C13.036 16.0798 13.305 16.3498 13.305 16.6828C13.305 17.0148 13.035 17.2848 12.703 17.2848H7.22C6.888 17.2848 6.618 17.0148 6.618 16.6828C6.618 16.3498 6.888 16.0798 7.22 16.0798H12.702ZM12.702 13.6868C13.036 13.6868 13.305 13.9568 13.305 14.2888C13.305 14.6218 13.035 14.8908 12.703 14.8908H7.22C6.888 14.8908 6.618 14.6208 6.618 14.2888C6.618 13.9558 6.888 13.6868 7.22 13.6868H12.702ZM18.519 5.87378H1.406C1.296 5.87378 1.205 5.97178 1.205 6.08778V14.3428C1.205 14.4588 1.297 14.5568 1.405 14.5568H3.637V11.3658C3.637 11.0108 3.907 10.7228 4.24 10.7228H15.685C16.017 10.7228 16.287 11.0108 16.287 11.3658V14.5568H18.519C18.628 14.5568 18.719 14.4588 18.719 14.3428V6.08778C18.719 5.97178 18.628 5.87378 18.519 5.87378ZM15.082 1.33878H4.842V4.58678H15.082V1.33878Z" fill="white" />
  </g>
  <defs>
    <clipPath id="clip0_5224_52783">
      <rect width="20" height="20" fill="white" />
    </clipPath>
  </defs>
</svg>
  