<svg width="20" height="20" viewBox="0 0 20 20" fill="none" xmlns="http://www.w3.org/2000/svg">
  <g clip-path="url(#clip0_5224_52797)">
    <path fill-rule="evenodd" clip-rule="evenodd" d="M19.2796 0.700155C19.1961 0.621057 19.0773 0.602705 18.9766 0.653156L0.787196 9.78469C0.689271 9.83387 0.62621 9.93943 0.625016 10.0561C0.623856 10.1727 0.684842 10.2797 0.781815 10.3312L5.51798 12.8106C5.61237 12.8606 5.72493 12.8493 5.80923 12.7812C8.07923 11.3363 9.71316 10.211 10.711 9.40514C10.8825 9.26665 11.2048 8.97415 11.2255 8.98965C11.2463 9.00514 10.9386 9.30854 10.7951 9.46799C10.0177 10.3321 8.92626 11.7427 7.52094 13.6999C7.46488 13.7622 7.4363 13.8475 7.44246 13.9342L7.60922 19.0954C7.61791 19.2173 7.69358 19.3216 7.80115 19.3599C7.8299 19.37 7.85944 19.375 7.88865 19.375C7.96875 19.375 8.04666 19.3379 8.10087 19.27C9.65877 17.3195 10.5041 16.2611 10.6368 16.0949C10.7022 16.013 10.6819 15.8674 10.833 15.8492C10.9842 15.831 11.0654 15.9691 11.1816 16.0291C11.2956 16.088 12.3053 16.6093 14.2106 17.5929C14.2839 17.6307 14.3687 17.6323 14.4432 17.5973C14.5177 17.5622 14.5745 17.494 14.5988 17.4103L19.3621 1.01855C19.3954 0.904078 19.363 0.779253 19.2796 0.700155Z" stroke="white" />
  </g>
  <defs>
    <clipPath id="clip0_5224_52797">
      <rect width="20" height="20" fill="white" />
    </clipPath>
  </defs>
</svg>
  