<svg width="20" height="20" viewBox="0 0 20 20" fill="none" xmlns="http://www.w3.org/2000/svg">
  <g clip-path="url(#clip0_5224_52792)">
    <path d="M13.6115 0L20 6.38853V18.1226C20 18.6441 19.8175 19.0874 19.4524 19.4524C19.0874 19.8175 18.6441 20 18.1226 20H1.87744C1.35593 20 0.912648 19.8175 0.547588 19.4524C0.182528 19.0874 0 18.6441 0 18.1226V1.87744C0 1.35593 0.182528 0.912648 0.547588 0.547588C0.912648 0.182528 1.35593 0 1.87744 0H13.6115ZM3.75 1.25H1.87744C1.68651 1.25 1.56144 1.3015 1.43147 1.43147C1.3015 1.56144 1.25 1.68651 1.25 1.87744V18.1226C1.25 18.3135 1.3015 18.4386 1.43147 18.5685C1.56144 18.6985 1.68651 18.75 1.87744 18.75H18.1226C18.3135 18.75 18.4386 18.6985 18.5685 18.5685C18.6985 18.4386 18.75 18.3135 18.75 18.1226V6.90629L13.0937 1.25H11.9075L11.9084 6.62158C11.9084 7.21292 11.6861 7.75277 11.2685 8.17039C10.8509 8.58801 10.311 8.8103 9.71969 8.8103H5.93872C5.34738 8.8103 4.80753 8.58801 4.38991 8.17039C3.97229 7.75277 3.75 7.21292 3.75 6.62158V1.25ZM10.6575 1.25H5V6.62158C5 6.88234 5.09126 7.10398 5.27379 7.28651C5.45632 7.46904 5.67797 7.5603 5.93872 7.5603H9.71969C9.98044 7.5603 10.2021 7.46904 10.3846 7.28651C10.5671 7.10398 10.6584 6.88234 10.6584 6.62158L10.6575 1.25ZM8.89179 3.3116C9.15254 3.3116 9.37418 3.40287 9.55671 3.5854C9.73924 3.76793 9.83051 3.98957 9.83051 4.25033V5.37158C9.83051 5.63234 9.73924 5.85398 9.55671 6.03651C9.37418 6.21904 9.15254 6.3103 8.89179 6.3103C8.63103 6.3103 8.40504 6.22338 8.21382 6.04954C8.03998 5.85832 7.95306 5.63234 7.95306 5.37158V4.25033C7.95306 3.98957 8.04433 3.76793 8.22686 3.5854C8.40939 3.40287 8.63103 3.3116 8.89179 3.3116Z" fill="white" />
  </g>
  <defs>
    <clipPath id="clip0_5224_52792">
      <rect width="20" height="20" fill="white" />
    </clipPath>
  </defs>
</svg>
  