<svg width="178" height="178" viewBox="0 0 178 178" fill="none" xmlns="http://www.w3.org/2000/svg">
  <path d="M89 169C133.183 169 169 133.183 169 89C169 44.8172 133.183 9 89 9C44.8172 9 9 44.8172 9 89C9 133.183 44.8172 169 89 169Z" fill="#F0F0F0" stroke="#FAFAFA" stroke-width="16" />
  <path d="M144.026 69.8648L96.1924 58.8215C94.1139 58.3416 92.04 59.6376 91.5601 61.716L83.9232 94.7951C83.4434 96.8736 84.7393 98.9475 86.8178 99.4273L134.652 110.471C136.73 110.951 138.804 109.655 139.284 107.576L146.921 74.4971C147.401 72.4186 146.105 70.3447 144.026 69.8648Z" fill="#EBF6FF" stroke="#789EBC" stroke-width="1.95" />
  <path d="M125.601 85.5973C128.691 86.3107 131.779 84.3614 132.499 81.2436C133.219 78.1258 131.298 75.02 128.208 74.3067C125.118 73.5934 122.03 75.5426 121.31 78.6604C120.59 81.7783 122.512 84.884 125.601 85.5973Z" fill="#B9D1E1" />
  <path fill-rule="evenodd" clip-rule="evenodd" d="M85.5832 86.7239C95.0167 80.2513 101.585 77.4426 105.289 78.2977C110.845 79.5804 118.956 96.0172 124.902 97.427C128.865 98.3669 135.019 95.5345 143.364 88.9299L139.464 108.304C139.028 110.47 136.919 111.872 134.753 111.436C134.699 111.425 134.644 111.413 134.591 111.4L86.6479 99.6564C84.5224 99.1357 83.2099 97.0037 83.7022 94.8714L85.5832 86.7239Z" fill="#789EBC" stroke="#789EBC" stroke-width="1.93" />
  <path d="M34.373 68.8648L82.207 57.8215C84.2855 57.3416 86.3594 58.6376 86.8392 60.716L94.4761 93.7951C94.956 95.8736 93.6601 97.9475 91.5816 98.4273L43.7476 109.471C41.6691 109.951 39.5951 108.655 39.1153 106.576L31.4784 73.4971C30.9985 71.4186 32.2945 69.3447 34.373 68.8648Z" fill="#EBF6FF" stroke="#789EBC" stroke-width="1.95" />
  <path d="M52.798 84.5973C49.7083 85.3107 46.6201 83.3614 45.9002 80.2436C45.1804 77.1258 47.1016 74.02 50.1914 73.3067C53.2811 72.5934 56.3693 74.5426 57.0892 77.6604C57.809 80.7783 55.8878 83.884 52.798 84.5973Z" fill="#B9D1E1" />
  <path fill-rule="evenodd" clip-rule="evenodd" d="M92.8162 85.7239C83.3827 79.2513 76.814 76.4426 73.11 77.2977C67.5541 78.5804 59.4431 95.0172 53.4977 96.427C49.5342 97.3669 43.38 94.5345 35.0352 87.9299L38.9357 107.304C39.3717 109.47 41.4808 110.872 43.6465 110.436C43.7008 110.425 43.7549 110.413 43.8087 110.4L91.7514 98.6564C93.8769 98.1357 95.1895 96.0037 94.6972 93.8714L92.8162 85.7239Z" fill="#789EBC" stroke="#789EBC" stroke-width="1.93" />
  <path d="M123.735 57.063H54.9619C52.8288 57.063 51.0995 58.7922 51.0995 60.9254V108.96C51.0995 111.093 52.8288 112.822 54.9619 112.822H123.735C125.869 112.822 127.598 111.093 127.598 108.96V60.9254C127.598 58.7922 125.869 57.063 123.735 57.063Z" fill="#EBF6FF" stroke="#789EBC" stroke-width="1.95" />
  <path d="M102.874 83.139C107.107 83.139 110.539 79.7075 110.539 75.4745C110.539 71.2416 107.107 67.8101 102.874 67.8101C98.6413 67.8101 95.2098 71.2416 95.2098 75.4745C95.2098 79.7075 98.6413 83.139 102.874 83.139Z" fill="#B9D1E1" />
  <path fill-rule="evenodd" clip-rule="evenodd" d="M51.1615 96.5002C61.4879 85.35 69.1883 79.7749 74.2628 79.7749C81.8744 79.7749 97.3602 98.5478 105.517 98.5958C110.954 98.6277 118.108 93.1455 126.979 82.1491L127.762 109.628C127.825 111.837 126.086 113.678 123.877 113.741C123.822 113.742 123.766 113.743 123.711 113.742L55.1086 112.835C52.9203 112.807 51.1615 111.024 51.1615 108.836V96.5002Z" fill="#789EBC" />
  <path d="M104.816 126.022L95.4082 126.022L95.6635 138.535C95.6885 140.064 94.4701 141.327 92.9436 141.356L88.7864 141.434L88.292 141.443C86.7655 141.472 85.5081 140.255 85.4831 138.726L85.2267 122.866L81.213 124.463L75.9328 126.564C74.1555 127.272 72.4528 125.408 73.3127 123.697L87.4896 95.4647C88.4666 93.5176 91.2219 93.4656 92.262 95.374L107.342 123.058C108.255 124.736 106.614 126.662 104.816 126.022Z" fill="#8AACC3" />
  <path d="M90.6338 141.397L89.8523 93.9739C88.9116 93.9912 87.9786 94.4914 87.4896 95.4646L73.3127 123.696C72.4528 125.408 74.1555 127.272 75.9328 126.564L85.2262 126.564L85.4832 138.726C85.5081 140.255 86.7655 141.472 88.292 141.443L90.012 141.414L90.6338 141.397Z" fill="#B9D1E1" />
</svg>
  